<svg width="269.2048192771084" height="319.2" viewBox="0 0 350 415" class="looka-1j8o68f"><defs id="SvgjsDefs6412"></defs><g id="SvgjsG6413" featurekey="rootContainer" transform="matrix(1,0,0,1,0,0)" fill="#3f3f3f"><path xmlns="http://www.w3.org/2000/svg" fill-rule="evenodd" d="M5,65 L175,0 L345, 65 L175, 10 z M5,335 L175,415 L345,330 L175, 405 z"></path></g><g id="SvgjsG6414" featurekey="symbolFeature-0" transform="matrix(2.202712529622453,0,0,2.202712529622453,86.88710001135563,73.47966022917234)" fill="#f74307"><path xmlns="http://www.w3.org/2000/svg" fill-rule="evenodd" clip-rule="evenodd" d="M60.801,47.077l-0.088-0.255c2.85-1.813,5.972-3.354,9.621-4.367  c-0.855-2.387-4.106-0.93-4.334-3.755c-0.098-1.215,2.029-2.632,2.6-4.333c0.525-1.567-0.233-3.542,0-4.911  c0.261-1.527,2.077-2.953,1.444-4.334c-2.639,2.603-6.142,4.888-10.111,2.601c-1.71,1.401-5.181,3.187-7.51,1.444  c-0.095-0.517-0.078-1.043,0.076-1.545c0.231-0.756,0.711-1.373,1.155-2.013c0.194-0.278,0.363-0.576,0.481-0.895  c0.055-0.148,0.094-0.298,0.097-0.458c0.002-0.028,0.08-0.262-0.128-0.493c-0.262,0.062-0.649,0.321-1.023,0.247  s-0.73-0.239-1.064-0.418c-0.406-0.22-0.915-0.589-1.039-1.07c-0.112-0.438,0.114-1.113,0.25-1.528  c0.274-0.845,0.723-1.615,1.092-2.419c0.184-0.398,0.421-0.772,0.554-1.193c0.064-0.201,0.107-0.413,0.077-0.625  c-0.018-0.12-0.104-0.395-0.205-0.466c-0.042-0.031-0.095,0.021-0.143-0.005c-0.113-0.063-0.184-0.204-0.25-0.308  c-0.077-0.116-0.321-0.623-0.508-0.389c-1.685,2.12-7.541,2.283-5.813-2.245c-2.608-0.809-5.405-2.378-5.453-5.844  c-2.425,1.612-3.524,6.344-6.645,5.488c0.201,1.196,0.281,3.683-0.578,4.622c-2.392-0.65-3.671-0.886-5.777-2.022  c-0.878,2.377,0.684,4.669,1.444,6.356c-0.264,0.507-0.1,1.441-0.578,1.733c-0.951,0.013-1.438,0.488-2.599,0.289  c0.461,1.833,1.359,2.786,1.443,4.334c-3.539,2.668-7.185-2.253-11.844,0.577c-1.518-0.984-3.458-2.506-5.2-4.045  c-0.719-0.114-0.854,1.806-0.288,2.023c1.459,0.885,1.537,6.344,1.733,8.955c1.747,0.084,1.701,1.959,2.311,3.179  c-0.373,1.649-2.228,1.816-2.599,3.466c2.359,1.4,6.688,1.881,6.933,4.333c0.26,2.594-4.234,3.441-4.045,6.067  c-1.739,1.624-4.212,1.12-6.067,2.889c0.817,0.239,0.791-0.07,1.487,0.048c1.625,2.074,9.374-0.39,10.936,1.686  c0.308,1.657-0.402,2.294-0.579,3.466c2.47-0.804,4.107-2.44,7.222-2.6c1.549,2.212,2.67,4.688,4.045,6.355  c1.183-1.219,2.211-2.994,3.467-4.622c0.555-0.72,2.231-3.739,3.409-5.035c-0.083,0.625,1.208-0.229,1.208-0.229  c-0.144,5.18-1.404,12.01-2.306,16.819c1.527-0.251,0.041,0.706,1.155,0.867c1.606-5.423,1.707-12.262,2.6-17.623  c0.512,0.254,0.844,0.916,1.444,0.289c2.059,3.725,2.896,7.68,6.646,10.111c1.383-2.662,1.973-6.117,4.622-7.511  c-0.451,0.733,1.62,0.942,2.601,1.155c0.775,1.246,2.058,1.985,3.466,2.601c0.161-0.319,0.211-0.677,0.171-1.03  c-0.074-0.646-0.372-1.243-0.558-1.86c-0.096-0.318-0.164-0.65-0.161-0.984c0.002-0.166,0.019-0.332,0.056-0.493  c0.05-0.21,0.101-0.382,0.228-0.519c0.048-0.051,0.106-0.097,0.18-0.138c0.218-0.121,0.466-0.165,0.694-0.261  c0.375-0.159,0.753-0.313,1.128-0.474c0.352-0.151,0.703-0.304,1.062-0.437c1.281-0.475,2.717-0.627,4.075-0.68  c0.509-0.019,1.019-0.014,1.526,0.025c0.245,0.019,0.49,0.045,0.734,0.081c0.145,0.021,0.583,0.023,0.688,0.123  c0.671,0.635,1.884,1.74,2.312,0.289C68.552,52.037,64.562,49.671,60.801,47.077z"></path></g><g id="SvgjsG6415" featurekey="nameFeature-0" transform="matrix(1.1791025134886168,0,0,1.1791025134886168,-1.8423476773259637,243.65008553757073)" fill="#3f3f3f"><path d="M1.5625 7.929688 l15.351563 21.054688 l15.351563 -21.054687 l0 32.070313 l-6.308594 0 l0 -12.988281 l-9.042969 12.480469 l-9.042969 -12.480469 l0 12.988281 l-6.308594 0 l0 -32.070312 z M50.322266 29.589844 l5.566406 0 l-2.773437 -6.542969 z M47.744141 35.15625 l-0.039062 -0.019531 c-0.703125 1.601563 -1.425781 3.183594 -2.148437 4.785156 l-6.777344 0 l14.277344 -31.992187 l14.316406 31.992188 l-6.796875 0 c-0.703125 -1.582031 -1.40625 -3.183594 -2.109375 -4.765625 l-10.722656 0 z M74.003906 40 l0 -9.453125 l0 -11.015625 l0 -11.015625 l6.308594 0 l4.707031 0 c3.027344 0 5.625 1.074219 7.792969 3.242188 s3.242188 4.765625 3.242188 7.792969 s-1.074219 5.625 -3.242187 7.773438 s-4.765625 3.222656 -7.792969 3.222656 l-4.707031 0 l0 9.453125 l-6.308594 0 z M80.3125 24.257813 l4.707031 0.019531 c1.308594 0 2.421875 -0.46875 3.339844 -1.386719 s1.386719 -2.03125 1.386719 -3.339844 c0 -1.289062 -0.46875 -2.402344 -1.386719 -3.339844 s-2.03125 -1.40625 -3.339844 -1.40625 l-4.707031 0 l0 4.726563 l0 4.726563 z M103.017578 8.515625 l6.308594 0 l0 25.175781 l12.578125 0 l0 6.308594 l-18.886719 0 l0 -31.484375 z M128.476563 8.515625 l18.886719 0 l0 6.289063 l-12.578125 0 l0 6.308594 l9.433594 0 l0 6.289063 l-9.433594 0 l0 6.289063 l12.578125 0 l0 6.308594 l-12.578125 0 l-6.308594 0 l0 -31.484375 z M170.46875 8.515625 l6.308594 0 l0 11.953125 l6.933594 -11.953125 l7.285156 0 l-9.296875 15.996094 l10.800781 15.488281 l-7.675781 0 l-8.046875 -11.5625 l0 11.5625 l-6.308594 0 l0 -31.484375 z M199.072266 40 l0 -31.484375 l6.308594 0 l0 31.484375 l-6.308594 0 z M227.851563 8.359375 c4.375 0 8.125 1.5625 11.25 4.6875 s4.6875 6.875 4.6875 11.25 s-1.5625 8.125 -4.6875 11.230469 s-6.875 4.667969 -11.25 4.667969 s-8.125 -1.5625 -11.230469 -4.667969 s-4.667969 -6.855469 -4.667969 -11.230469 s1.5625 -8.125 4.667969 -11.25 s6.855469 -4.6875 11.230469 -4.6875 z M227.851563 14.707031 c-2.636719 0 -4.882812 0.9375 -6.738281 2.8125 s-2.792969 4.121094 -2.792969 6.738281 c0 2.636719 0.9375 4.882813 2.792969 6.738281 s4.101563 2.792969 6.738281 2.792969 c2.617188 0 4.863281 -0.9375 6.738281 -2.792969 s2.8125 -4.101562 2.8125 -6.738281 c0 -2.617187 -0.9375 -4.863281 -2.8125 -6.738281 s-4.121094 -2.8125 -6.738281 -2.8125 z M259.677735 33.789063 l-0.019531 -0.039062 c1.738281 0 3.183594 -1.445312 3.183594 -3.183594 c0 -1.347656 -0.527344 -2.207031 -1.601562 -2.597656 c-2.265625 -0.839844 -1.71875 -0.644531 -3.925781 -1.40625 c-2.324219 -0.800781 -4.472656 -2.382812 -5.917969 -4.355469 c-0.859375 -1.171875 -1.289062 -2.617187 -1.289062 -4.355469 c0 -2.617187 0.9375 -4.863281 2.8125 -6.738281 s4.121094 -2.8125 6.757813 -2.8125 c2.617188 0 4.863281 0.9375 6.738281 2.8125 s2.8125 4.121094 2.8125 6.738281 l-6.347656 0 c0 -1.71875 -1.445312 -3.164062 -3.164062 -3.164062 c-1.738281 0 -3.183594 1.445313 -3.183594 3.183594 c0 1.132813 0.449219 1.992188 1.367188 2.578125 c1.875 1.210938 1.660156 0.976563 3.90625 1.640625 c2.421875 0.703125 4.609375 2.207031 6.113281 4.140625 c0.878906 1.132813 1.328125 2.597656 1.328125 4.375 c0 2.636719 -0.9375 4.882813 -2.8125 6.757813 s-4.121094 2.8125 -6.738281 2.8125 c-2.636719 0 -4.882812 -0.9375 -6.757812 -2.8125 s-2.8125 -4.121094 -2.8125 -6.757812 l6.367188 0 c0 1.757813 1.425781 3.183594 3.183594 3.183594 z M276.367188 8.515625 l6.308594 0 l0 11.953125 l6.933594 -11.953125 l7.285156 0 l-9.296875 15.996094 l10.800781 15.488281 l-7.675781 0 l-8.046875 -11.5625 l0 11.5625 l-6.308594 0 l0 -31.484375 z"></path></g><g id="SvgjsG6416" featurekey="sloganFeature-0" transform="matrix(1.0334433707415467,0,0,1.0334433707415467,48.173245352685186,304.7993407611191)" fill="#fb0a3a"><path d="M4.16 20 l0 -2.52 l1.44 0 l0.38 -0.38 l0 -2.04 l-0.8 -0.8 l-1.02 0 l0 -2.52 l1.02 0 l0.8 -0.8 l0 -2.04 l-0.38 -0.38 l-1.44 0 l0 -2.52 l2.48 0 l1.86 1.86 l0 4.12 l-1.02 1.02 l1.02 1.02 l0 4.12 l-1.86 1.86 l-2.48 0 z M0.8 20 l0 -4.9 l2.52 0 l0 4.9 l-2.52 0 z M0.8 14.26 l0 -8.26 l2.52 0 l0 8.26 l-2.52 0 z M18.7725 20 l0 -2.52 l0.74 0 l0.38 -0.38 l0 -11.1 l2.52 0 l0 12.14 l-1.86 1.86 l-1.78 0 z M16.1525 20 l-1.86 -1.86 l0 -12.14 l2.52 0 l0 11.1 l0.38 0.38 l0.74 0 l0 2.52 l-1.78 0 z M30.065 14.26 l-1.86 -1.86 l0 -4.54 l1.86 -1.86 l1.64 0 l0 2.52 l-0.6 0 l-0.38 0.38 l0 2.46 l0.38 0.38 l3.08 0 l1.86 1.86 l0 0.66 l-5.98 0 z M30.065 20 l-1.86 -1.86 l0 -2.62 l2.52 0 l0 1.58 l0.38 0.38 l2.04 0 l0.38 -0.38 l0 -2 l2.52 0 l0 3.04 l-1.86 1.86 l-4.12 0 z M33.525 10.48 l0 -1.58 l-0.38 -0.38 l-0.6 0 l0 -2.52 l1.64 0 l1.86 1.86 l0 2.62 l-2.52 0 z M41.8375 12.58 l0 -6.58 l2.52 0 l0 6.58 l-2.52 0 z M41.8375 20 l0 -6.58 l2.52 0 l0 6.58 l-2.52 0 z M55.63 20 l-5.48 -14 l2.72 0 l2.92 7.48 l0 -7.48 l2.52 0 l0 14 l-2.68 0 z M50.19 20 l0 -11.6 l2.52 6.42 l0 5.18 l-2.52 0 z M64.1025 14.26 l0 -8.26 l2.52 0 l0 8.26 l-2.52 0 z M64.1025 20 l0 -4.9 l2.52 0 l0 4.9 l-2.52 0 z M67.4625 20 l0 -2.52 l3.5 0 l0 2.52 l-3.5 0 z M67.4625 14.26 l0 -2.52 l2.38 0 l0 2.52 l-2.38 0 z M67.4625 8.52 l0 -2.52 l3.5 0 l0 2.52 l-3.5 0 z M78.615 14.26 l-1.86 -1.86 l0 -4.54 l1.86 -1.86 l1.64 0 l0 2.52 l-0.6 0 l-0.38 0.38 l0 2.46 l0.38 0.38 l3.08 0 l1.86 1.86 l0 0.66 l-5.98 0 z M78.615 20 l-1.86 -1.86 l0 -2.62 l2.52 0 l0 1.58 l0.38 0.38 l2.04 0 l0.38 -0.38 l0 -2 l2.52 0 l0 3.04 l-1.86 1.86 l-4.12 0 z M82.075 10.48 l0 -1.58 l-0.38 -0.38 l-0.6 0 l0 -2.52 l1.64 0 l1.86 1.86 l0 2.62 l-2.52 0 z M92.2475 14.26 l-1.86 -1.86 l0 -4.54 l1.86 -1.86 l1.64 0 l0 2.52 l-0.6 0 l-0.38 0.38 l0 2.46 l0.38 0.38 l3.08 0 l1.86 1.86 l0 0.66 l-5.98 0 z M92.2475 20 l-1.86 -1.86 l0 -2.62 l2.52 0 l0 1.58 l0.38 0.38 l2.04 0 l0.38 -0.38 l0 -2 l2.52 0 l0 3.04 l-1.86 1.86 l-4.12 0 z M95.7075 10.48 l0 -1.58 l-0.38 -0.38 l-0.6 0 l0 -2.52 l1.64 0 l1.86 1.86 l0 2.62 l-2.52 0 z M104.02 14.26 l0 -8.26 l2.52 0 l0 8.26 l-2.52 0 z M104.02 20 l0 -4.9 l2.52 0 l0 4.9 l-2.52 0 z M107.38 20 l0 -2.52 l3.5 0 l0 2.52 l-3.5 0 z M107.38 14.26 l0 -2.52 l2.38 0 l0 2.52 l-2.38 0 z M107.38 8.52 l0 -2.52 l3.5 0 l0 2.52 l-3.5 0 z M118.5325 14.26 l-1.86 -1.86 l0 -4.54 l1.86 -1.86 l1.64 0 l0 2.52 l-0.6 0 l-0.38 0.38 l0 2.46 l0.38 0.38 l3.08 0 l1.86 1.86 l0 0.66 l-5.98 0 z M118.5325 20 l-1.86 -1.86 l0 -2.62 l2.52 0 l0 1.58 l0.38 0.38 l2.04 0 l0.38 -0.38 l0 -2 l2.52 0 l0 3.04 l-1.86 1.86 l-4.12 0 z M121.9925 10.48 l0 -1.58 l-0.38 -0.38 l-0.6 0 l0 -2.52 l1.64 0 l1.86 1.86 l0 2.62 l-2.52 0 z M140.1575 14.26 l-1.86 -1.86 l0 -4.54 l1.86 -1.86 l1.64 0 l0 2.52 l-0.6 0 l-0.38 0.38 l0 2.46 l0.38 0.38 l3.08 0 l1.86 1.86 l0 0.66 l-5.98 0 z M140.1575 20 l-1.86 -1.86 l0 -2.62 l2.52 0 l0 1.58 l0.38 0.38 l2.04 0 l0.38 -0.38 l0 -2 l2.52 0 l0 3.04 l-1.86 1.86 l-4.12 0 z M143.6175 10.48 l0 -1.58 l-0.38 -0.38 l-0.6 0 l0 -2.52 l1.64 0 l1.86 1.86 l0 2.62 l-2.52 0 z M156.49 20 l0 -2.52 l0.8 0 l0.38 -0.38 l0 -8.2 l-0.38 -0.38 l-0.8 0 l0 -2.52 l1.84 0 l1.86 1.86 l0 10.28 l-1.86 1.86 l-1.84 0 z M153.79 20 l-1.86 -1.86 l0 -10.28 l1.86 -1.86 l1.84 0 l0 2.52 l-0.8 0 l-0.38 0.38 l0 8.2 l0.38 0.38 l0.8 0 l0 2.52 l-1.84 0 z M165.9825 20 l0 -14 l2.52 0 l0 14 l-2.52 0 z M169.3425 14.26 l0 -2.52 l2.38 0 l0 2.52 l-2.38 0 z M169.3425 8.52 l0 -2.52 l3.5 0 l0 2.52 l-3.5 0 z M181.295 20 l0 -10.64 l2.52 0 l0 10.64 l-2.52 0 z M178.635 8.52 l0 -2.52 l7.84 0 l0 2.52 l-7.84 0 z M198.9475 20 l-0.4 -2.56 l1.28 -8.18 l0.74 4.8 l1.26 -8.06 l2.56 0 l-2.18 14 l-3.26 0 z M194.0475 20 l-2.18 -14 l2.56 0 l2.18 14 l-2.56 0 z M197.3675 19.52 l-1.26 -8.18 l0.82 -5.34 l2.4 0 l0.08 0.54 z M209.38 20 l1.14 -5.6 l4.28 0 l-0.86 -4.28 l-0.68 3.44 l-2.58 0 l1.52 -7.56 l3.48 0 l2.2 10.92 l-5.3 0 l-0.62 3.08 l-2.58 0 z M215.94 20 l-0.46 -2.24 l2.58 0 l0.44 2.24 l-2.56 0 z M229.5925 20 l-1.36 -5.18 l-0.98 0 l0 -2.52 l1.58 0 l0.38 -0.38 l0 -3.02 l-0.38 -0.38 l-1.58 0 l0 -2.52 l2.62 0 l1.86 1.86 l0 5.1 l-1.08 1.1 l1.54 5.94 l-2.6 0 z M223.8925 20 l0 -4.34 l2.52 0 l0 4.34 l-2.52 0 z M223.8925 14.82 l0 -8.82 l2.52 0 l0 8.82 l-2.52 0 z M237.785 14.26 l0 -8.26 l2.52 0 l0 8.26 l-2.52 0 z M237.785 20 l0 -4.9 l2.52 0 l0 4.9 l-2.52 0 z M241.145 20 l0 -2.52 l3.5 0 l0 2.52 l-3.5 0 z M241.145 14.26 l0 -2.52 l2.38 0 l0 2.52 l-2.38 0 z M241.145 8.52 l0 -2.52 l3.5 0 l0 2.52 l-3.5 0 z"></path></g></svg>