<svg width="262.4666748046875" height="81.94081554878049" viewBox="0 0 410 128" ><g id="SvgjsG5767" featurekey="rootContainer" transform="matrix(1,0,0,1,0,0)" fill="transparent">    <rect width="410" height="128"></rect></g><g id="SvgjsG5768" featurekey="YvLwfh-0" transform="matrix(1.501849452015309,0,0,1.501849452015309,7.650295462287925,3.7361319744356827)" fill="#737373"><path xmlns="http://www.w3.org/2000/svg" fill-rule="evenodd" clip-rule="evenodd" d="M60.801,47.077l-0.088-0.255c2.85-1.813,5.972-3.354,9.621-4.367  c-0.855-2.387-4.106-0.93-4.334-3.755c-0.098-1.215,2.029-2.632,2.6-4.333c0.525-1.567-0.233-3.542,0-4.911  c0.261-1.527,2.077-2.953,1.444-4.334c-2.639,2.603-6.142,4.888-10.111,2.601c-1.71,1.401-5.181,3.187-7.51,1.444  c-0.095-0.517-0.078-1.043,0.076-1.545c0.231-0.756,0.711-1.373,1.155-2.013c0.194-0.278,0.363-0.576,0.481-0.895  c0.055-0.148,0.094-0.298,0.097-0.458c0.002-0.028,0.08-0.262-0.128-0.493c-0.262,0.062-0.649,0.321-1.023,0.247  s-0.73-0.239-1.064-0.418c-0.406-0.22-0.915-0.589-1.039-1.07c-0.112-0.438,0.114-1.113,0.25-1.528  c0.274-0.845,0.723-1.615,1.092-2.419c0.184-0.398,0.421-0.772,0.554-1.193c0.064-0.201,0.107-0.413,0.077-0.625  c-0.018-0.12-0.104-0.395-0.205-0.466c-0.042-0.031-0.095,0.021-0.143-0.005c-0.113-0.063-0.184-0.204-0.25-0.308  c-0.077-0.116-0.321-0.623-0.508-0.389c-1.685,2.12-7.541,2.283-5.813-2.245c-2.608-0.809-5.405-2.378-5.453-5.844  c-2.425,1.612-3.524,6.344-6.645,5.488c0.201,1.196,0.281,3.683-0.578,4.622c-2.392-0.65-3.671-0.886-5.777-2.022  c-0.878,2.377,0.684,4.669,1.444,6.356c-0.264,0.507-0.1,1.441-0.578,1.733c-0.951,0.013-1.438,0.488-2.599,0.289  c0.461,1.833,1.359,2.786,1.443,4.334c-3.539,2.668-7.185-2.253-11.844,0.577c-1.518-0.984-3.458-2.506-5.2-4.045  c-0.719-0.114-0.854,1.806-0.288,2.023c1.459,0.885,1.537,6.344,1.733,8.955c1.747,0.084,1.701,1.959,2.311,3.179  c-0.373,1.649-2.228,1.816-2.599,3.466c2.359,1.4,6.688,1.881,6.933,4.333c0.26,2.594-4.234,3.441-4.045,6.067  c-1.739,1.624-4.212,1.12-6.067,2.889c0.817,0.239,0.791-0.07,1.487,0.048c1.625,2.074,9.374-0.39,10.936,1.686  c0.308,1.657-0.402,2.294-0.579,3.466c2.47-0.804,4.107-2.44,7.222-2.6c1.549,2.212,2.67,4.688,4.045,6.355  c1.183-1.219,2.211-2.994,3.467-4.622c0.555-0.72,2.231-3.739,3.409-5.035c-0.083,0.625,1.208-0.229,1.208-0.229  c-0.144,5.18-1.404,12.01-2.306,16.819c1.527-0.251,0.041,0.706,1.155,0.867c1.606-5.423,1.707-12.262,2.6-17.623  c0.512,0.254,0.844,0.916,1.444,0.289c2.059,3.725,2.896,7.68,6.646,10.111c1.383-2.662,1.973-6.117,4.622-7.511  c-0.451,0.733,1.62,0.942,2.601,1.155c0.775,1.246,2.058,1.985,3.466,2.601c0.161-0.319,0.211-0.677,0.171-1.03  c-0.074-0.646-0.372-1.243-0.558-1.86c-0.096-0.318-0.164-0.65-0.161-0.984c0.002-0.166,0.019-0.332,0.056-0.493  c0.05-0.21,0.101-0.382,0.228-0.519c0.048-0.051,0.106-0.097,0.18-0.138c0.218-0.121,0.466-0.165,0.694-0.261  c0.375-0.159,0.753-0.313,1.128-0.474c0.352-0.151,0.703-0.304,1.062-0.437c1.281-0.475,2.717-0.627,4.075-0.68  c0.509-0.019,1.019-0.014,1.526,0.025c0.245,0.019,0.49,0.045,0.734,0.081c0.145,0.021,0.583,0.023,0.688,0.123  c0.671,0.635,1.884,1.74,2.312,0.289C68.552,52.037,64.562,49.671,60.801,47.077z"></path></g><g id="SvgjsG5769" featurekey="JZW510-0" transform="matrix(2.28866601591923,0,0,2.28866601591923,131.84164172743542,15.908831960444243)" fill="#737373"><path d="M5.8 5.72 l3.34 9.82 l0.04 0 l3.16 -9.82 l4.42 0 l0 14.28 l-2.94 0 l0 -10.12 l-0.04 0 l-3.5 10.12 l-2.42 0 l-3.5 -10.02 l-0.04 0 l0 10.02 l-2.94 0 l0 -14.28 l4.42 0 z M23.98 9.38 c3.01334 0.01334 4.52 0.9933 4.52 2.93996 l0 5.48 c0 1.01334 0.12 1.74668 0.36 2.20002 l-2.88 0 c-0.10666 -0.32 -0.17332 -0.65334 -0.19998 -1 c-0.84 0.85334 -2 1.28 -3.48 1.28 c-1.08 0 -1.93666 -0.27334 -2.57 -0.82 s-0.95 -1.30666 -0.95 -2.28 c0 -0.94666 0.3 -1.68 0.9 -2.2 c0.61334 -0.54666 1.72668 -0.89332 3.34002 -1.03998 c1.14666 -0.12 1.87332 -0.27 2.17998 -0.45 s0.46 -0.45666 0.46 -0.83 c0 -0.46666 -0.14 -0.81332 -0.42 -1.03998 s-0.74666 -0.34 -1.4 -0.34 c-0.6 0 -1.05334 0.12334 -1.36 0.37 s-0.48666 0.64332 -0.54 1.18998 l-2.84 0 c0.06666 -1.13334 0.53332 -1.99334 1.39998 -2.58 s2.02666 -0.88 3.48 -0.88 z M21.62 17.05996 c0 0.88 0.58 1.32 1.74 1.32 c1.52 -0.01334 2.28666 -0.79334 2.3 -2.34 l0 -1.1 c-0.22666 0.22666 -0.8 0.39332 -1.72 0.49998 c-0.8 0.09334 -1.38666 0.25668 -1.76 0.49002 s-0.56 0.61 -0.56 1.13 z M36.52 9.38 c1.42666 0 2.56666 0.5 3.42 1.5 s1.28 2.35334 1.28 4.06 c0 1.56 -0.41 2.84 -1.23 3.84 s-1.92334 1.5 -3.31 1.5 c-1.36 0 -2.39334 -0.52 -3.1 -1.56 l-0.04 0 l0 4.92 l-2.84 0 l0 -13.98 l2.7 0 l0 1.32 l0.04 0 c0.68 -1.06666 1.70666 -1.6 3.08 -1.6 z M33.44 14.86 c0 1.01334 0.21336 1.81334 0.64002 2.4 s1.04 0.88 1.84 0.88 c0.82666 0 1.44332 -0.29334 1.84998 -0.88 s0.61 -1.38666 0.61 -2.4 c0 -1.04 -0.22 -1.85666 -0.66 -2.45 s-1.05334 -0.89 -1.84 -0.89 s-1.39 0.29334 -1.81 0.88 s-0.63 1.40666 -0.63 2.46 z M45.84 5.72 l0 14.28 l-2.84 0 l0 -14.28 l2.84 0 z M52.86 9.38 c0.97334 0 1.84004 0.22664 2.60004 0.67998 s1.35666 1.11 1.79 1.97 s0.65 1.85 0.65 2.97 c0 0.10666 -0.00666 0.28 -0.02 0.52 l-7.46 0 c0.02666 0.82666 0.24332 1.47 0.64998 1.93 s1.03 0.69 1.87 0.69 c0.52 0 0.99666 -0.13 1.43 -0.39 s0.71 -0.57666 0.83 -0.95 l2.5 0 c-0.73334 2.32 -2.34668 3.48 -4.84002 3.48 c-0.94666 -0.01334 -1.82332 -0.22 -2.62998 -0.62 s-1.45 -1.02334 -1.93 -1.87 s-0.72 -1.83 -0.72 -2.95 c0 -1.05334 0.24334 -2.01334 0.73 -2.88 s1.13332 -1.51332 1.93998 -1.93998 s1.67666 -0.64 2.61 -0.64 z M55.04004 13.71998 c-0.13334 -0.77334 -0.38 -1.33334 -0.74 -1.68 s-0.87334 -0.52 -1.54 -0.52 c-0.69334 0 -1.24 0.19666 -1.64 0.59 s-0.63334 0.93 -0.7 1.61 l4.62 0 z M63 5.72 l0 5.92 l5.58 -5.92 l3.92 0 l-5.58 5.64 l6.12 8.64 l-3.94 0 l-4.3 -6.42 l-1.8 1.82 l0 4.6 l-3.14 0 l0 -14.28 l3.14 0 z M76.92 5.72 l0 2.34 l-2.84 0 l0 -2.34 l2.84 0 z M76.92 9.66 l0 10.34 l-2.84 0 l0 -10.34 l2.84 0 z M84.18 9.38 c1.65334 0 2.96 0.50334 3.92 1.51 s1.44 2.32332 1.44 3.94998 c0 1.64 -0.49 2.95666 -1.47 3.95 s-2.27666 1.49 -3.89 1.49 c-1.64 0 -2.94 -0.50334 -3.9 -1.51 s-1.44 -2.31666 -1.44 -3.93 c0 -1.66666 0.49 -2.99332 1.47 -3.97998 s2.27 -1.48 3.87 -1.48 z M81.68 14.84 c0 1.05334 0.21334 1.86664 0.64 2.43998 s1.04666 0.86 1.86 0.86 c0.84 0 1.47 -0.29334 1.89 -0.88 s0.63 -1.39332 0.63 -2.41998 c0 -1.06666 -0.21666 -1.88666 -0.65 -2.46 s-1.06334 -0.86 -1.89 -0.86 c-0.8 0 -1.41334 0.28666 -1.84 0.86 s-0.64 1.39334 -0.64 2.46 z M95.62 9.38 c1.38666 0 2.46992 0.28002 3.24992 0.84002 s1.21666 1.38 1.31 2.46 l-2.7 0 c-0.04 -0.49334 -0.22 -0.85 -0.54 -1.07 s-0.78666 -0.33 -1.4 -0.33 c-0.53334 0 -0.93 0.08 -1.19 0.24 s-0.39 0.4 -0.39 0.72 c0 0.24 0.08666 0.44 0.26 0.6 s0.43668 0.3 0.79002 0.42 s0.74334 0.22 1.17 0.3 c1.29334 0.25334 2.20668 0.51334 2.74002 0.78 s0.92334 0.58666 1.17 0.96 s0.37 0.83334 0.37 1.38 c0 1.16 -0.42334 2.05 -1.27 2.67 s-1.99666 0.93 -3.45 0.93 c-1.52 0 -2.70334 -0.32666 -3.55 -0.98 s-1.28332 -1.54 -1.30998 -2.66 l2.7 0 c0 0.53334 0.20666 0.95668 0.62 1.27002 s0.93334 0.47 1.56 0.47 c0.53334 0 0.97668 -0.11666 1.33002 -0.35 s0.53 -0.55668 0.53 -0.97002 c0 -0.26666 -0.11 -0.48666 -0.33 -0.66 s-0.53 -0.32668 -0.93 -0.46002 s-1.02 -0.28668 -1.86 -0.46002 c-0.66666 -0.13334 -1.26 -0.31334 -1.78 -0.54 s-0.91666 -0.52332 -1.19 -0.88998 s-0.41 -0.81666 -0.41 -1.35 c0 -0.68 0.16334 -1.27334 0.49 -1.78 s0.82666 -0.89 1.5 -1.15 s1.51 -0.39 2.51 -0.39 z M105.22 5.72 l0 7.66 l3.58 -3.72 l3.36 0 l-3.9 3.8 l4.34 6.54 l-3.44 0 l-2.84 -4.62 l-1.1 1.06 l0 3.56 l-2.84 0 l0 -14.28 l2.84 0 z"></path></g><g id="SvgjsG5770" featurekey="zdvuGz-0" transform="matrix(0.6316656137231182,0,0,0.6316656137231182,135.0000001129506,86.23527201450918)" fill="#737373"><path d="M9.74 13.06 c0.46 -0.7 0.7 -1.58 0.7 -2.6 c0 -2.78 -1.64 -4.36 -4.46 -4.36 l-4.62 0 l0 6.02 l4.7 0 c1.06 0 1.7 -0.6 1.7 -1.66 c0 -0.56 -0.2 -1.02 -0.6 -1.4 c-0.26 -0.24 -0.7 -0.38 -1.1 -0.38 l-3.34 0 l0 2.1 l0.72 0 l0 -1.4 l2.62 0 c0.58 0 0.98 0.38 0.98 1.08 c0 0.62 -0.32 0.94 -0.98 0.94 l-4 0 l0 -4.58 l3.82 0 c2.48 0 3.86 1.26 3.86 3.64 c0 0.78 -0.16 1.46 -0.5 2.08 l-0.2 0.32 l-0.22 0.22 l0.26 0.26 l0.38 0.44 c0.24 0.3 0.36 0.92 0.36 1.88 c0 2.34 -1.4 3.6 -3.94 3.6 l-5.16 0 l0 -13.18 l-0.72 0 l0 13.9 l5.88 0 c2.9 0 4.66 -1.6 4.66 -4.32 c0 -1.04 -0.26 -1.9 -0.8 -2.6 z M6.36 18.68 c0.7 0 1.36 -0.26 1.98 -0.8 c0.58 -0.58 0.88 -1.28 0.88 -2.08 c0 -1 -0.32 -1.78 -0.98 -2.36 l-0.52 -0.38 c0.9 -0.5 1.44 -1.46 1.44 -2.72 c0 -0.54 -0.12 -1.06 -0.36 -1.52 c-0.48 -0.92 -1.34 -1.42 -2.44 -1.42 l-3.62 0 l0 0.72 l3.62 0 c0.34 0 0.66 0.1 1 0.3 c0.64 0.4 1.06 1.12 1.06 1.92 c0 1.38 -0.84 2.36 -2.12 2.36 l-4.92 0 l0 0.72 l4.92 0 c1.34 0 2.2 0.92 2.2 2.38 c0 0.8 -0.34 1.42 -1.04 1.84 c-0.34 0.2 -0.7 0.3 -1.1 0.3 l-4.3 0 l0 -3.16 l4 0 c0.7 0 1.04 0.32 1.04 0.94 c0 0.64 -0.34 0.96 -1.04 0.96 l-2.62 0 l0 -1.32 l-0.72 0 l0 2.04 l3.34 0 c0.78 0 1.3 -0.28 1.58 -0.86 c0.12 -0.22 0.18 -0.5 0.18 -0.82 c0 -1.04 -0.7 -1.68 -1.76 -1.68 l-4.7 0 l0 4.64 l5 0 z M26.7325 20 c-1.94 0 -3.42 -0.5 -4.4 -1.5 c-0.96 -0.96 -1.46 -2.38 -1.46 -4.06 l0 -8.42 l3.4 0 l0 8.42 c0 1.52 0.74 2.16 2.36 2.16 c1.58 0 2.44 -0.78 2.44 -2.16 l0 -8.42 l2.06 0 l0 8.42 c0 1.06 -0.28 2.06 -0.82 2.78 c-0.72 0.98 -1.86 1.44 -3.62 1.44 c-1.02 0 -1.84 -0.14 -2.46 -0.44 c-1.26 -0.58 -2.02 -1.88 -2.02 -3.78 l0 -7.14 l0.72 0 l0 7.14 c0 2.26 1.3 3.5 3.76 3.5 s3.72 -1.24 3.72 -3.5 l0 -7.7 l-0.62 0 l0 7.7 c0 1.76 -1.18 2.88 -3.16 2.88 c-2 0 -3.06 -1.02 -3.06 -2.88 l0 -7.7 l-1.98 0 l0 7.7 c0 3.18 1.76 4.84 5.14 4.84 c1.76 0 2.96 -0.42 3.78 -1.28 s1.26 -2.1 1.26 -3.56 l0 -8.42 l0.72 0 l0 8.42 c0 1.68 -0.52 3.08 -1.48 4.06 c-0.96 1 -2.38 1.5 -4.28 1.5 z M43.885 16.7 c0.98 0.44 1.84 0.66 2.56 0.66 c0.36 0 0.58 -0.02 0.68 -0.08 c0.46 -0.12 0.78 -0.38 0.98 -0.78 l0.02 -0.04 c0.1 -0.18 0.14 -0.4 0.14 -0.68 c0 -0.14 -0.04 -0.3 -0.12 -0.5 l-0.04 -0.08 c-0.26 -0.54 -0.84 -0.9 -1.9 -1.24 l-0.2 -0.06 l-0.06 -0.02 c-1.62 -0.48 -2.66 -1.24 -3.16 -2.3 c-0.2 -0.4 -0.3 -0.84 -0.3 -1.32 c0 -0.5 0.1 -0.98 0.3 -1.48 l0.04 -0.08 c0.46 -0.92 1.2 -1.52 2.18 -1.82 c0.7 -0.1 1.1 -0.16 1.2 -0.16 c1.36 0 2.94 0.56 4.72 1.66 l0.38 -0.62 c-1.94 -1.18 -3.62 -1.76 -5.08 -1.76 c-0.58 0 -1.06 0.06 -1.4 0.2 c-1.18 0.32 -2.06 1.04 -2.64 2.18 l-0.06 0.14 c-0.24 0.58 -0.36 1.16 -0.36 1.74 c0 0.62 0.12 1.16 0.36 1.64 c0.62 1.24 1.82 2.12 3.62 2.66 l0.24 0.08 c0.82 0.26 1.3 0.54 1.48 0.86 l0.02 0.04 c0.04 0.06 0.06 0.14 0.06 0.24 c0 0.18 -0.02 0.3 -0.08 0.4 c-0.14 0.32 -0.48 0.48 -1.02 0.48 c-0.86 0 -2.1 -0.44 -3.06 -1.06 l-0.3 -0.18 l-1.76 2.84 l0.3 0.18 c1.42 0.96 3.3 1.56 4.82 1.56 c0.5 0 0.96 -0.06 1.38 -0.18 c1.18 -0.34 2.06 -1.08 2.64 -2.2 l0.08 -0.14 c0.24 -0.62 0.36 -1.2 0.36 -1.74 c0 -0.48 -0.16 -1.08 -0.46 -1.82 c-0.54 -1.08 -1.68 -1.9 -3.46 -2.46 l-0.28 -0.08 c-0.56 -0.18 -0.94 -0.36 -1.12 -0.5 c-0.24 -0.2 -0.38 -0.34 -0.44 -0.42 l-0.04 -0.22 c0 -0.2 0.04 -0.38 0.14 -0.52 c0.16 -0.3 0.32 -0.38 0.96 -0.38 c0.86 0 2.1 0.44 3.06 1.06 l0.3 0.18 l1.08 -1.72 l-0.32 -0.18 c-1.22 -0.8 -2.88 -1.36 -4.1 -1.36 c-0.54 0 -0.88 0.04 -1.06 0.14 c-0.82 0.24 -1.44 0.76 -1.84 1.54 c-0.18 0.34 -0.26 0.74 -0.26 1.24 c0 0.38 0.08 0.74 0.24 1.08 c0.42 0.9 1.36 1.56 2.82 2 l0.26 0.08 l0.54 0.2 c0.3 0.12 0.62 0.28 0.98 0.48 c0.64 0.38 0.96 0.92 0.96 1.64 c0 0.4 -0.1 0.78 -0.28 1.12 c-0.42 0.74 -1.14 1.12 -2.14 1.12 c-0.68 0 -1.64 -0.26 -2.88 -0.76 l-0.34 0.58 l-0.02 0.04 c1.14 0.58 2.22 0.86 3.26 0.86 c0.58 0 1.12 -0.12 1.6 -0.36 c0.94 -0.46 1.52 -1.42 1.52 -2.62 c0 -1.9 -1.46 -2.46 -3 -3 l-0.26 -0.08 c-1.26 -0.38 -2.04 -0.9 -2.36 -1.6 c-0.12 -0.24 -0.18 -0.5 -0.18 -0.8 c0 -0.38 0.06 -0.68 0.2 -0.94 c0.32 -0.58 0.78 -0.96 1.38 -1.14 l0.8 -0.1 c1.06 0 2.22 0.36 3.48 1.06 l-0.32 0.5 c-1.3 -0.64 -2.34 -0.96 -3.1 -0.96 c-0.38 0 -0.6 0.02 -0.7 0.08 c-0.44 0.12 -0.76 0.38 -0.98 0.8 l-0.02 0.04 c-0.1 0.18 -0.14 0.42 -0.14 0.72 c0 0.22 0.04 0.38 0.1 0.48 c0.26 0.54 0.94 0.98 2.02 1.3 l0.26 0.08 l0.5 0.16 c0.06 0.02 0.38 0.16 0.96 0.44 c0.78 0.44 1.34 1 1.66 1.66 c0.2 0.4 0.3 0.84 0.3 1.32 c0 0.58 -0.1 1.08 -0.32 1.5 l-0.04 0.08 c-0.46 0.92 -1.2 1.52 -2.18 1.82 c-0.7 0.1 -1.1 0.16 -1.2 0.16 c-1.02 0 -2.34 -0.38 -3.56 -0.96 l-0.56 -0.3 l1 -1.62 z M60.4975 6 l2.1 0 l0 12.66 l-0.72 0 l0 -11.94 l-0.66 0 l0 12.56 l2.02 0 l0 -13.28 l0.72 0 l0 14 l-3.46 0 l0 -14 z M83.17 14.3 l-8.18 -8.3 l-1 0 l9.9 10.06 l0 -8.66 l-0.72 0 l0 6.9 z M82.51 12.7 l0 -6 l2.04 0 l0 12.58 l-0.34 0 l-0.08 -0.08 l-9.16 -9.28 l0 10.08 l2.1 0 l0 -5.9 l-0.74 -0.76 l0 5.94 l-0.64 0 l0 -7.6 l8.3 8.32 l1.28 0 l0 -14 l-3.48 0 l0 5.92 z M74.31 20 l0 -11.7 l9.58 9.72 l0 -1.06 l-10.28 -10.38 l0 13.42 l0.7 0 z M94.5825 6.04 l0.72 0 l0 13.24 l7.66 0 l0 -2 l-5.64 0 l0 -1.92 l0.72 0 l0 1.2 l5.64 0 l0 3.44 l-9.1 0 l0 -13.96 z M95.9425 6.04 l7.64 0 l0 3.42 l-4.8 0 l0 -0.72 l4.08 0 l0 -1.98 l-6.2 0 l0 5.78 l4.66 0 l0 0.72 l-5.38 0 l0 -7.22 z M95.9425 13.9 l6.08 0 l0 -2 l-4.7 0 l0 -4.54 l4.84 0 l0 0.72 l-4.12 0 l0 3.1 l4.7 0 l0 3.44 l-6.08 0 l0 3.32 l5.6 0 l0 0.72 l-6.32 0 l0 -4.76 z M115.335 16.7 c0.98 0.44 1.84 0.66 2.56 0.66 c0.36 0 0.58 -0.02 0.68 -0.08 c0.46 -0.12 0.78 -0.38 0.98 -0.78 l0.02 -0.04 c0.1 -0.18 0.14 -0.4 0.14 -0.68 c0 -0.14 -0.04 -0.3 -0.12 -0.5 l-0.04 -0.08 c-0.26 -0.54 -0.84 -0.9 -1.9 -1.24 l-0.2 -0.06 l-0.06 -0.02 c-1.62 -0.48 -2.66 -1.24 -3.16 -2.3 c-0.2 -0.4 -0.3 -0.84 -0.3 -1.32 c0 -0.5 0.1 -0.98 0.3 -1.48 l0.04 -0.08 c0.46 -0.92 1.2 -1.52 2.18 -1.82 c0.7 -0.1 1.1 -0.16 1.2 -0.16 c1.36 0 2.94 0.56 4.72 1.66 l0.38 -0.62 c-1.94 -1.18 -3.62 -1.76 -5.08 -1.76 c-0.58 0 -1.06 0.06 -1.4 0.2 c-1.18 0.32 -2.06 1.04 -2.64 2.18 l-0.06 0.14 c-0.24 0.58 -0.36 1.16 -0.36 1.74 c0 0.62 0.12 1.16 0.36 1.64 c0.62 1.24 1.82 2.12 3.62 2.66 l0.24 0.08 c0.82 0.26 1.3 0.54 1.48 0.86 l0.02 0.04 c0.04 0.06 0.06 0.14 0.06 0.24 c0 0.18 -0.02 0.3 -0.08 0.4 c-0.14 0.32 -0.48 0.48 -1.02 0.48 c-0.86 0 -2.1 -0.44 -3.06 -1.06 l-0.3 -0.18 l-1.76 2.84 l0.3 0.18 c1.42 0.96 3.3 1.56 4.82 1.56 c0.5 0 0.96 -0.06 1.38 -0.18 c1.18 -0.34 2.06 -1.08 2.64 -2.2 l0.08 -0.14 c0.24 -0.62 0.36 -1.2 0.36 -1.74 c0 -0.48 -0.16 -1.08 -0.46 -1.82 c-0.54 -1.08 -1.68 -1.9 -3.46 -2.46 l-0.28 -0.08 c-0.56 -0.18 -0.94 -0.36 -1.12 -0.5 c-0.24 -0.2 -0.38 -0.34 -0.44 -0.42 l-0.04 -0.22 c0 -0.2 0.04 -0.38 0.14 -0.52 c0.16 -0.3 0.32 -0.38 0.96 -0.38 c0.86 0 2.1 0.44 3.06 1.06 l0.3 0.18 l1.08 -1.72 l-0.32 -0.18 c-1.22 -0.8 -2.88 -1.36 -4.1 -1.36 c-0.54 0 -0.88 0.04 -1.06 0.14 c-0.82 0.24 -1.44 0.76 -1.84 1.54 c-0.18 0.34 -0.26 0.74 -0.26 1.24 c0 0.38 0.08 0.74 0.24 1.08 c0.42 0.9 1.36 1.56 2.82 2 l0.26 0.08 l0.54 0.2 c0.3 0.12 0.62 0.28 0.98 0.48 c0.64 0.38 0.96 0.92 0.96 1.64 c0 0.4 -0.1 0.78 -0.28 1.12 c-0.42 0.74 -1.14 1.12 -2.14 1.12 c-0.68 0 -1.64 -0.26 -2.88 -0.76 l-0.34 0.58 l-0.02 0.04 c1.14 0.58 2.22 0.86 3.26 0.86 c0.58 0 1.12 -0.12 1.6 -0.36 c0.94 -0.46 1.52 -1.42 1.52 -2.62 c0 -1.9 -1.46 -2.46 -3 -3 l-0.26 -0.08 c-1.26 -0.38 -2.04 -0.9 -2.36 -1.6 c-0.12 -0.24 -0.18 -0.5 -0.18 -0.8 c0 -0.38 0.06 -0.68 0.2 -0.94 c0.32 -0.58 0.78 -0.96 1.38 -1.14 l0.8 -0.1 c1.06 0 2.22 0.36 3.48 1.06 l-0.32 0.5 c-1.3 -0.64 -2.34 -0.96 -3.1 -0.96 c-0.38 0 -0.6 0.02 -0.7 0.08 c-0.44 0.12 -0.76 0.38 -0.98 0.8 l-0.02 0.04 c-0.1 0.18 -0.14 0.42 -0.14 0.72 c0 0.22 0.04 0.38 0.1 0.48 c0.26 0.54 0.94 0.98 2.02 1.3 l0.26 0.08 l0.5 0.16 c0.06 0.02 0.38 0.16 0.96 0.44 c0.78 0.44 1.34 1 1.66 1.66 c0.2 0.4 0.3 0.84 0.3 1.32 c0 0.58 -0.1 1.08 -0.32 1.5 l-0.04 0.08 c-0.46 0.92 -1.2 1.52 -2.18 1.82 c-0.7 0.1 -1.1 0.16 -1.2 0.16 c-1.02 0 -2.34 -0.38 -3.56 -0.96 l-0.56 -0.3 l1 -1.62 z M134.0475 16.7 c0.98 0.44 1.84 0.66 2.56 0.66 c0.36 0 0.58 -0.02 0.68 -0.08 c0.46 -0.12 0.78 -0.38 0.98 -0.78 l0.02 -0.04 c0.1 -0.18 0.14 -0.4 0.14 -0.68 c0 -0.14 -0.04 -0.3 -0.12 -0.5 l-0.04 -0.08 c-0.26 -0.54 -0.84 -0.9 -1.9 -1.24 l-0.2 -0.06 l-0.06 -0.02 c-1.62 -0.48 -2.66 -1.24 -3.16 -2.3 c-0.2 -0.4 -0.3 -0.84 -0.3 -1.32 c0 -0.5 0.1 -0.98 0.3 -1.48 l0.04 -0.08 c0.46 -0.92 1.2 -1.52 2.18 -1.82 c0.7 -0.1 1.1 -0.16 1.2 -0.16 c1.36 0 2.94 0.56 4.72 1.66 l0.38 -0.62 c-1.94 -1.18 -3.62 -1.76 -5.08 -1.76 c-0.58 0 -1.06 0.06 -1.4 0.2 c-1.18 0.32 -2.06 1.04 -2.64 2.18 l-0.06 0.14 c-0.24 0.58 -0.36 1.16 -0.36 1.74 c0 0.62 0.12 1.16 0.36 1.64 c0.62 1.24 1.82 2.12 3.62 2.66 l0.24 0.08 c0.82 0.26 1.3 0.54 1.48 0.86 l0.02 0.04 c0.04 0.06 0.06 0.14 0.06 0.24 c0 0.18 -0.02 0.3 -0.08 0.4 c-0.14 0.32 -0.48 0.48 -1.02 0.48 c-0.86 0 -2.1 -0.44 -3.06 -1.06 l-0.3 -0.18 l-1.76 2.84 l0.3 0.18 c1.42 0.96 3.3 1.56 4.82 1.56 c0.5 0 0.96 -0.06 1.38 -0.18 c1.18 -0.34 2.06 -1.08 2.64 -2.2 l0.08 -0.14 c0.24 -0.62 0.36 -1.2 0.36 -1.74 c0 -0.48 -0.16 -1.08 -0.46 -1.82 c-0.54 -1.08 -1.68 -1.9 -3.46 -2.46 l-0.28 -0.08 c-0.56 -0.18 -0.94 -0.36 -1.12 -0.5 c-0.24 -0.2 -0.38 -0.34 -0.44 -0.42 l-0.04 -0.22 c0 -0.2 0.04 -0.38 0.14 -0.52 c0.16 -0.3 0.32 -0.38 0.96 -0.38 c0.86 0 2.1 0.44 3.06 1.06 l0.3 0.18 l1.08 -1.72 l-0.32 -0.18 c-1.22 -0.8 -2.88 -1.36 -4.1 -1.36 c-0.54 0 -0.88 0.04 -1.06 0.14 c-0.82 0.24 -1.44 0.76 -1.84 1.54 c-0.18 0.34 -0.26 0.74 -0.26 1.24 c0 0.38 0.08 0.74 0.24 1.08 c0.42 0.9 1.36 1.56 2.82 2 l0.26 0.08 l0.54 0.2 c0.3 0.12 0.62 0.28 0.98 0.48 c0.64 0.38 0.96 0.92 0.96 1.64 c0 0.4 -0.1 0.78 -0.28 1.12 c-0.42 0.74 -1.14 1.12 -2.14 1.12 c-0.68 0 -1.64 -0.26 -2.88 -0.76 l-0.34 0.58 l-0.02 0.04 c1.14 0.58 2.22 0.86 3.26 0.86 c0.58 0 1.12 -0.12 1.6 -0.36 c0.94 -0.46 1.52 -1.42 1.52 -2.62 c0 -1.9 -1.46 -2.46 -3 -3 l-0.26 -0.08 c-1.26 -0.38 -2.04 -0.9 -2.36 -1.6 c-0.12 -0.24 -0.18 -0.5 -0.18 -0.8 c0 -0.38 0.06 -0.68 0.2 -0.94 c0.32 -0.58 0.78 -0.96 1.38 -1.14 l0.8 -0.1 c1.06 0 2.22 0.36 3.48 1.06 l-0.32 0.5 c-1.3 -0.64 -2.34 -0.96 -3.1 -0.96 c-0.38 0 -0.6 0.02 -0.7 0.08 c-0.44 0.12 -0.76 0.38 -0.98 0.8 l-0.02 0.04 c-0.1 0.18 -0.14 0.42 -0.14 0.72 c0 0.22 0.04 0.38 0.1 0.48 c0.26 0.54 0.94 0.98 2.02 1.3 l0.26 0.08 l0.5 0.16 c0.06 0.02 0.38 0.16 0.96 0.44 c0.78 0.44 1.34 1 1.66 1.66 c0.2 0.4 0.3 0.84 0.3 1.32 c0 0.58 -0.1 1.08 -0.32 1.5 l-0.04 0.08 c-0.46 0.92 -1.2 1.52 -2.18 1.82 c-0.7 0.1 -1.1 0.16 -1.2 0.16 c-1.02 0 -2.34 -0.38 -3.56 -0.96 l-0.56 -0.3 l1 -1.62 z M168.6925 16.7 c0.98 0.44 1.84 0.66 2.56 0.66 c0.36 0 0.58 -0.02 0.68 -0.08 c0.46 -0.12 0.78 -0.38 0.98 -0.78 l0.02 -0.04 c0.1 -0.18 0.14 -0.4 0.14 -0.68 c0 -0.14 -0.04 -0.3 -0.12 -0.5 l-0.04 -0.08 c-0.26 -0.54 -0.84 -0.9 -1.9 -1.24 l-0.2 -0.06 l-0.06 -0.02 c-1.62 -0.48 -2.66 -1.24 -3.16 -2.3 c-0.2 -0.4 -0.3 -0.84 -0.3 -1.32 c0 -0.5 0.1 -0.98 0.3 -1.48 l0.04 -0.08 c0.46 -0.92 1.2 -1.52 2.18 -1.82 c0.7 -0.1 1.1 -0.16 1.2 -0.16 c1.36 0 2.94 0.56 4.72 1.66 l0.38 -0.62 c-1.94 -1.18 -3.62 -1.76 -5.08 -1.76 c-0.58 0 -1.06 0.06 -1.4 0.2 c-1.18 0.32 -2.06 1.04 -2.64 2.18 l-0.06 0.14 c-0.24 0.58 -0.36 1.16 -0.36 1.74 c0 0.62 0.12 1.16 0.36 1.64 c0.62 1.24 1.82 2.12 3.62 2.66 l0.24 0.08 c0.82 0.26 1.3 0.54 1.48 0.86 l0.02 0.04 c0.04 0.06 0.06 0.14 0.06 0.24 c0 0.18 -0.02 0.3 -0.08 0.4 c-0.14 0.32 -0.48 0.48 -1.02 0.48 c-0.86 0 -2.1 -0.44 -3.06 -1.06 l-0.3 -0.18 l-1.76 2.84 l0.3 0.18 c1.42 0.96 3.3 1.56 4.82 1.56 c0.5 0 0.96 -0.06 1.38 -0.18 c1.18 -0.34 2.06 -1.08 2.64 -2.2 l0.08 -0.14 c0.24 -0.62 0.36 -1.2 0.36 -1.74 c0 -0.48 -0.16 -1.08 -0.46 -1.82 c-0.54 -1.08 -1.68 -1.9 -3.46 -2.46 l-0.28 -0.08 c-0.56 -0.18 -0.94 -0.36 -1.12 -0.5 c-0.24 -0.2 -0.38 -0.34 -0.44 -0.42 l-0.04 -0.22 c0 -0.2 0.04 -0.38 0.14 -0.52 c0.16 -0.3 0.32 -0.38 0.96 -0.38 c0.86 0 2.1 0.44 3.06 1.06 l0.3 0.18 l1.08 -1.72 l-0.32 -0.18 c-1.22 -0.8 -2.88 -1.36 -4.1 -1.36 c-0.54 0 -0.88 0.04 -1.06 0.14 c-0.82 0.24 -1.44 0.76 -1.84 1.54 c-0.18 0.34 -0.26 0.74 -0.26 1.24 c0 0.38 0.08 0.74 0.24 1.08 c0.42 0.9 1.36 1.56 2.82 2 l0.26 0.08 l0.54 0.2 c0.3 0.12 0.62 0.28 0.98 0.48 c0.64 0.38 0.96 0.92 0.96 1.64 c0 0.4 -0.1 0.78 -0.28 1.12 c-0.42 0.74 -1.14 1.12 -2.14 1.12 c-0.68 0 -1.64 -0.26 -2.88 -0.76 l-0.34 0.58 l-0.02 0.04 c1.14 0.58 2.22 0.86 3.26 0.86 c0.58 0 1.12 -0.12 1.6 -0.36 c0.94 -0.46 1.52 -1.42 1.52 -2.62 c0 -1.9 -1.46 -2.46 -3 -3 l-0.26 -0.08 c-1.26 -0.38 -2.04 -0.9 -2.36 -1.6 c-0.12 -0.24 -0.18 -0.5 -0.18 -0.8 c0 -0.38 0.06 -0.68 0.2 -0.94 c0.32 -0.58 0.78 -0.96 1.38 -1.14 l0.8 -0.1 c1.06 0 2.22 0.36 3.48 1.06 l-0.32 0.5 c-1.3 -0.64 -2.34 -0.96 -3.1 -0.96 c-0.38 0 -0.6 0.02 -0.7 0.08 c-0.44 0.12 -0.76 0.38 -0.98 0.8 l-0.02 0.04 c-0.1 0.18 -0.14 0.42 -0.14 0.72 c0 0.22 0.04 0.38 0.1 0.48 c0.26 0.54 0.94 0.98 2.02 1.3 l0.26 0.08 l0.5 0.16 c0.06 0.02 0.38 0.16 0.96 0.44 c0.78 0.44 1.34 1 1.66 1.66 c0.2 0.4 0.3 0.84 0.3 1.32 c0 0.58 -0.1 1.08 -0.32 1.5 l-0.04 0.08 c-0.46 0.92 -1.2 1.52 -2.18 1.82 c-0.7 0.1 -1.1 0.16 -1.2 0.16 c-1.02 0 -2.34 -0.38 -3.56 -0.96 l-0.56 -0.3 l1 -1.62 z M191.885 20 c-1.22 0 -2.38 -0.32 -3.48 -0.96 c-2.2 -1.26 -3.56 -3.58 -3.56 -6.06 c0 -1.24 0.32 -2.4 0.96 -3.5 c1.26 -2.16 3.62 -3.52 6.08 -3.52 c1.22 0 2.4 0.32 3.5 0.94 c2.2 1.28 3.52 3.66 3.52 6.08 c0 1.22 -0.32 2.36 -0.94 3.46 c-1.28 2.2 -3.6 3.56 -6.08 3.56 z M191.885 6.66 c-1.14 0 -2.2 0.28 -3.16 0.84 c-1.94 1.12 -3.14 3.18 -3.14 5.48 c0 1.14 0.28 2.2 0.84 3.16 c1.12 1.94 3.16 3.14 5.46 3.14 c1.14 0 2.2 -0.28 3.18 -0.84 c1.94 -1.12 3.14 -3.16 3.14 -5.46 c0 -1.14 -0.28 -2.2 -0.84 -3.18 c-1.12 -1.94 -3.24 -3.14 -5.48 -3.14 z M191.885 18.64 c-1 0 -1.94 -0.26 -2.84 -0.76 c-1.78 -1.02 -2.88 -2.88 -2.88 -4.9 c0 -1.02 0.26 -1.96 0.76 -2.84 c1.02 -1.76 2.82 -2.8 4.96 -2.8 c1.08 0 2.06 0.24 2.92 0.72 c1.72 0.96 2.72 2.76 2.72 4.92 c0 1.02 -0.24 1.96 -0.72 2.82 c-0.98 1.74 -2.9 2.84 -4.92 2.84 z M191.885 8.04 c-0.9 0 -1.72 0.22 -2.48 0.66 c-1.54 0.88 -2.48 2.46 -2.48 4.28 c0 0.88 0.22 1.7 0.68 2.46 c0.88 1.54 2.44 2.5 4.28 2.5 c0.9 0 1.72 -0.22 2.48 -0.68 c1.5 -0.88 2.46 -2.52 2.46 -4.28 c0 -0.9 -0.22 -1.74 -0.66 -2.5 c-0.88 -1.52 -2.54 -2.44 -4.28 -2.44 z M191.885 17.34 c-0.78 0 -1.52 -0.2 -2.18 -0.58 c-1.34 -0.78 -2.2 -2.26 -2.2 -3.78 c0 -0.78 0.2 -1.52 0.6 -2.2 c0.78 -1.36 2.16 -2.14 3.78 -2.14 c0.78 0 1.5 0.2 2.16 0.58 c1.34 0.78 2.12 2.14 2.12 3.76 c0 0.8 -0.18 1.52 -0.54 2.18 c-0.74 1.32 -2.16 2.18 -3.74 2.18 z M191.885 9.36 c-0.64 0 -1.24 0.16 -1.8 0.48 c-1.12 0.66 -1.84 1.84 -1.84 3.14 c0 0.64 0.16 1.24 0.48 1.78 c0.64 1.12 1.8 1.8 3.16 1.8 c0.66 0 1.28 -0.16 1.82 -0.48 c1.1 -0.64 1.76 -1.82 1.76 -3.1 c0 -0.66 -0.16 -1.26 -0.48 -1.82 c-0.64 -1.12 -1.82 -1.8 -3.1 -1.8 z M206.4375 6 l0.72 0 l0 13.28 l1.96 0 l0 -5 l4.68 0 l0 -0.66 l-4.66 0 l0 -0.72 l5.38 0 l0 2.1 l-4.68 0 l0 5 l-3.4 0 l0 -14 z M207.7775 6 l7.72 0 l0 3.4 l-5 0 l0 -0.72 l4.28 0 l0 -1.96 l-6.3 0 l0 12 l-0.7 0 l0 -12.72 z M209.1175 7.3 l5.04 0 l0 0.72 l-4.32 0 l0 3.54 l4.68 0 l0 0.74 l-5.4 0 l0 -5 z M229.27 8.6 l4.78 0 l0 -1.9 l-8.5 0 l0 0.62 l7.82 0 l0 0.72 l-8.54 0 l0 -2.06 l9.94 0 l0 3.34 l-4.78 0 l0 9.36 l-0.72 0 l0 -10.08 z M227.93 9.32 l-3.1 0 l0 -0.72 l3.82 0 l0 10.66 l2 0 l0 -9.32 l0.72 0 l0 10.06 l-3.44 0 l0 -10.68 z M248.9825 19.3 l-0.36 0 l-0.16 -0.54 l-2.92 -9.38 l-0.8 -2.68 l0.62 0 l3.12 10.16 l0.32 1.08 l0.12 0 l0.38 -0.94 l-0.38 -1.16 l-3.02 -9.84 l-2.14 0 l4.32 14 l1.38 0 l1.82 -4.34 l0.38 -0.92 l0.52 -1.3 l-0.38 -0.9 l-0.54 1.28 l-0.38 0.92 z M246.5425 6 l3.1 10.2 l2.2 -5.26 l3.96 9.08 l0.78 0 l-4.74 -10.9 l-2.12 4.88 l-2.42 -8 l-0.76 0 z M256.7025 12.18 l1.68 -5.48 l2.04 0 l-0.18 0.58 l-2.04 6.68 l-1.16 3.78 l-4.92 -11.36 l-0.52 0 l-2.12 4.92 l0.32 1.06 l2.06 -4.76 l0.64 1.46 l4.48 10.38 l0.18 0.4 l4.22 -13.84 l-3.54 0 l-1.56 5.18 z M256.8225 13.92 l-0.42 -1 l-2.84 -6.54 l-0.78 0 l4.16 9.6 l2.68 -8.74 l-0.76 0 z M272.795 18.76 l0.88 0 l0.7 -1.68 l5.22 0.02 l1.28 2.9 l3.68 -0.02 l-6.3 -13.98 l-1.28 0 l-6.26 13.98 l3.9 0 l0.68 -1.6 l3.98 0 l-0.3 -0.68 l-4.12 0 l-0.64 1.58 l-2.38 0 l5.54 -12.6 l0.48 0 l5.56 12.6 l-2.12 0 l-1.28 -2.86 l-6.2 0 z M275.175 15.24 l2.44 -5.82 l4.1 9.32 l0.82 0 l-4.92 -10.96 l-3.6 8.08 l5.8 0 l-2.2 -4.86 l-1.52 3.66 l0.78 0 l0.74 -1.82 l1.1 2.4 l-3.54 0 z M303.3475 19.28 l-2.3 0 l-2.76 -5.14 l-1.86 0.02 l0 5.12 l-2.02 0 l0 -13.28 l-0.72 0 l0 14 l3.48 0 l0 -5.14 l0.7 0 l2.74 5.14 l3.94 0 l-2.76 -5.16 l-0.66 0.26 z M298.5875 6.72 c2.9 0 4.54 1.3 4.54 3.68 c0 2.16 -1.3 3.48 -3.56 3.72 l-0.54 0.06 l2.5 4.62 l0.82 0 l-2.18 -4.06 c2.4 -0.42 3.68 -1.88 3.68 -4.34 c0 -0.82 -0.18 -1.56 -0.52 -2.22 c-0.8 -1.42 -2.44 -2.18 -4.74 -2.18 l-3.54 0 l0 12.78 l0.72 0 l0 -12.06 l2.82 0 z M298.4275 13.52 c2.74 0 4.04 -0.94 4.04 -3.02 c0 -1.98 -1.36 -3.1 -3.54 -3.1 l-2.52 0 l0 2.1 l2.3 0 c1.06 0 1.6 0.3 1.6 0.9 c0 0.7 -0.66 1.04 -2 1.04 l-1.16 0 l0 -1.24 l-0.74 0 l0 1.96 l1.9 0 c1.78 0 2.72 -0.62 2.72 -1.76 c0 -0.36 -0.08 -0.64 -0.26 -0.86 c-0.34 -0.5 -1.02 -0.74 -2.06 -0.74 l-1.56 0 l0 -0.68 l1.78 0 c1.78 0 2.82 0.86 2.82 2.38 c0 1.58 -1.06 2.32 -3.32 2.32 l-2 0 l0 0.7 l2 0 z M313.28 6.04 l0.72 0 l0 13.24 l7.66 0 l0 -2 l-5.64 0 l0 -1.92 l0.72 0 l0 1.2 l5.64 0 l0 3.44 l-9.1 0 l0 -13.96 z M314.64 6.04 l7.64 0 l0 3.42 l-4.8 0 l0 -0.72 l4.08 0 l0 -1.98 l-6.2 0 l0 5.78 l4.66 0 l0 0.72 l-5.38 0 l0 -7.22 z M314.64 13.9 l6.08 0 l0 -2 l-4.7 0 l0 -4.54 l4.84 0 l0 0.72 l-4.12 0 l0 3.1 l4.7 0 l0 3.44 l-6.08 0 l0 3.32 l5.6 0 l0 0.72 l-6.32 0 l0 -4.76 z"></path></g></svg>